<svg width="1000" height="1000" xmlns="http://www.w3.org/2000/svg" version="1.1" enable-background="new 0 0 1000 1000" xml:space="preserve">
 <metadata>Svg Vector Icons : http://www.onlinewebfonts.com/icon</metadata>

 <g>
  <title>Layer 1</title>
  <g id="svg_4">
   <path id="svg_5" d="m647.34831,25.01536c94.05777,-49.01716 210.51411,-13.3093 260.0182,79.77462c49.50409,93.08392 13.39045,208.24179 -80.66732,257.25895l-77.33999,40.65828c66.62763,2.43463 130.17141,39.03519 163.44465,101.60511c49.50409,93.08392 13.4716,208.24179 -80.66732,257.25895l-412.42587,216.68183c-94.05777,49.01716 -210.51411,13.3093 -260.0182,-79.77462c-49.50409,-93.08392 -13.39045,-208.24179 80.66732,-257.25895l77.33999,-40.65828c-66.62763,-2.43463 -130.17141,-39.03519 -163.44465,-101.60511c-49.50409,-93.08392 -13.39045,-208.24179 80.66732,-257.25895l412.42587,-216.68183zm-222.60609,323.1562l249.63046,154.11191l-249.63046,153.38152l0,-307.49343z" fill-rule="evenodd" clip-rule="evenodd" fill="#f40407"/>
  </g>
  <g id="svg_1">
   <g transform="translate(0, 511) scale(0.1, -0.1)" id="svg_2">
    <path d="m4833.63261,4490.47459c-1004.7734,-97.66481 -1981.60356,-562.86971 -2707.30863,-1286.20825c-1349.01228,-1351.28779 -1690.88463,-3405.07046 -848.9466,-5119.16528c530.28443,-1079.22803 1455.96116,-1886.30527 2595.62669,-2265.40494c918.66817,-304.64504 1895.58935,-304.64504 2814.25752,0c2337.49304,776.8585 3600.40009,3300.39709 2823.63261,5637.89012c-379.09967,1139.66552 -1186.17691,2065.34226 -2265.40494,2595.62669c-748.91526,367.54008 -1579.20269,516.35832 -2411.85665,437.26165l0,0.00001zm1079.22803,-739.63118c351.15642,-60.4375 714.05447,-181.40351 1053.65131,-351.24745c286.07689,-141.90069 716.32998,-432.61962 727.98058,-490.78161c2.36653,-18.56815 -1176.89284,-1214.12015 -2623.56993,-2660.79724c-2118.95323,-2118.77119 -2635.22053,-2623.47891 -2663.16377,-2604.81974c-76.73014,48.87792 -344.23888,453.55429 -476.76448,720.97202c-172.11944,344.23888 -290.71893,704.7704 -353.52295,1069.85293c-39.50282,239.5655 -44.14486,344.23888 -34.86079,720.97202c18.56815,637.32434 113.95745,1030.35011 388.38374,1581.56922c183.77004,367.44906 397.75883,665.17656 697.76183,965.27058c569.87827,569.87827 1286.20825,934.96081 2081.6349,1058.29335c300.003,48.87792 893.09146,41.86935 1202.46955,-9.28407l0.00001,-0.00001zm2449.08396,-1553.62598c262.77569,-372.18212 511.71628,-955.89548 609.38109,-1442.03505c58.16199,-293.08546 58.16199,-1116.45534 0,-1409.44978c-307.01157,-1516.48968 -1469.97829,-2677.08988 -2986.37696,-2986.46798c-316.29564,-65.07953 -1144.30756,-58.16199 -1455.96116,11.6506c-490.78161,109.31541 -934.96081,295.36096 -1323.43557,553.49461c-123.24152,81.46319 -232.55694,160.46884 -241.84101,174.48597c-13.92611,25.57671 5214.55458,5277.35861 5251.78189,5277.35861c9.19305,0 74.36361,-81.37217 146.45171,-179.03698l0.00001,0z" id="svg_3"/>
   </g>
  </g>
  <g>
   <g>
    <path fill="#EC6F59" clip-rule="evenodd" fill-rule="evenodd" d="m691.43005,719.92592c-12.19955,-109.37673 51.69088,-186.30517 171.5064,-230.11455c-73.365,95.2068 62.5489,198.33703 70.05309,297.19112c17.56568,-29.97484 27.54332,-69.96925 29.51369,-123.46281c89.84068,140.94464 15.34376,371.31073 -182.36442,338.19167c-18.1526,-3.01845 -35.63443,-8.76188 -51.56511,-17.31414c-72.10731,-38.48518 -115.16208,-122.37281 -115.16208,-202.48739c0,-51.06204 21.84181,-96.63218 50.09781,-132.85353c3.77306,35.46674 11.82225,61.92006 27.92062,70.84963l0,0z" class="st0"/>
    <path fill="#FAD15C" clip-rule="evenodd" fill-rule="evenodd" d="m755.40433,877.93317c-20.37451,-52.61318 -17.56568,-137.59081 39.49133,-167.39796c0.41923,97.68025 96.63218,110.13134 78.81497,214.39348c16.43376,-18.61375 24.73448,-48.37897 26.20178,-71.8977c26.07602,59.69815 5.61766,107.44828 -31.56791,131.76353c-113.06594,73.95192 -210.41081,-75.96421 -145.68192,-158.13301c1.97037,18.36221 24.44102,46.70206 32.74175,51.27165l0,0z" class="st1"/>
   </g>
  </g>
 </g>
</svg>